<svg id="Layer_1" data-name="Layer 1" xmlns="http://www.w3.org/2000/svg" viewBox="0 0 508 326.8"><g id="Page-1"><g id="_022---SSD" data-name="022---SSD"><path id="Shape" d="M219.87,397.65H23.79A21.81,21.81,0,0,1,2,375.86V92.64A21.81,21.81,0,0,1,23.79,70.85H219.87a21.81,21.81,0,0,1,21.79,21.79V375.86A21.81,21.81,0,0,1,219.87,397.65ZM23.79,81.74a10.91,10.91,0,0,0-10.9,10.9V375.86a10.91,10.91,0,0,0,10.9,10.9H219.87a10.9,10.9,0,0,0,10.89-10.9V92.64a10.9,10.9,0,0,0-10.89-10.9Z" transform="translate(-2 -70.85)"/><path id="Shape-2" data-name="Shape" d="M160,114.42h-98A10.9,10.9,0,0,1,51,103.53V76.3a5.45,5.45,0,0,1,5.45-5.45H165.4a5.45,5.45,0,0,1,5.45,5.45v27.23A10.9,10.9,0,0,1,160,114.42Zm-98-32.68v21.79h98V81.74Z" transform="translate(-2 -70.85)"/><circle id="Oval" cx="27.23" cy="27.23" r="5.45"/><circle id="Oval-2" data-name="Oval" cx="212.42" cy="27.23" r="5.45"/><circle id="Oval-3" data-name="Oval" cx="27.23" cy="299.57" r="5.45"/><circle id="Oval-4" data-name="Oval" cx="212.42" cy="299.57" r="5.45"/><path id="Shape-3" data-name="Shape" d="M127.27,114.42a5.45,5.45,0,0,1-5.44-5.44V76.3a5.45,5.45,0,1,1,10.89,0V109A5.45,5.45,0,0,1,127.27,114.42Z" transform="translate(-2 -70.85)"/><path id="Shape-4" data-name="Shape" d="M192.63,359.52H51a27.25,27.25,0,0,1-27.23-27.23V179.78A27.26,27.26,0,0,1,51,152.55H192.63a27.27,27.27,0,0,1,27.24,27.23V332.29A27.26,27.26,0,0,1,192.63,359.52ZM51,163.44a16.36,16.36,0,0,0-16.34,16.34V332.29A16.36,16.36,0,0,0,51,348.63H192.63A16.35,16.35,0,0,0,209,332.29V179.78a16.35,16.35,0,0,0-16.34-16.34Z" transform="translate(-2 -70.85)"/><path id="Shape-5" data-name="Shape" d="M67.36,261.48A21.77,21.77,0,0,1,52,224.3a22.28,22.28,0,0,1,30.8,0,21.65,21.65,0,0,1,6.39,15.4,5.45,5.45,0,0,1-10.9,0,10.81,10.81,0,0,0-3.19-7.7,11.14,11.14,0,0,0-15.4,0,10.88,10.88,0,0,0,7.7,18.59,5.45,5.45,0,1,1,0,10.89Z" transform="translate(-2 -70.85)"/><path id="Shape-6" data-name="Shape" d="M67.36,294.16a21.81,21.81,0,0,1-21.79-21.78,5.45,5.45,0,1,1,10.9,0,10.89,10.89,0,1,0,10.89-10.9,5.45,5.45,0,1,1,0-10.89,21.79,21.79,0,1,1,0,43.57Z" transform="translate(-2 -70.85)"/><path id="Shape-7" data-name="Shape" d="M121.83,261.48a21.77,21.77,0,0,1-15.4-37.18,22.28,22.28,0,0,1,30.8,0,21.6,21.6,0,0,1,6.38,15.4,5.45,5.45,0,0,1-10.89,0,10.82,10.82,0,0,0-3.2-7.7,11.13,11.13,0,0,0-15.39,0,10.88,10.88,0,0,0,7.7,18.59,5.45,5.45,0,0,1,0,10.89Z" transform="translate(-2 -70.85)"/><path id="Shape-8" data-name="Shape" d="M121.83,294.16A21.81,21.81,0,0,1,100,272.38a5.45,5.45,0,1,1,10.89,0,10.89,10.89,0,1,0,10.9-10.9,5.45,5.45,0,1,1,0-10.89,21.79,21.79,0,0,1,0,43.57Z" transform="translate(-2 -70.85)"/><path id="Shape-9" data-name="Shape" d="M176.29,294.16H160a5.44,5.44,0,0,1-5.44-5.44V223.36a5.45,5.45,0,0,1,5.44-5.45h16.34a21.81,21.81,0,0,1,21.79,21.79v32.68A21.81,21.81,0,0,1,176.29,294.16ZM165.4,283.27h10.89a10.91,10.91,0,0,0,10.9-10.89V239.7a10.91,10.91,0,0,0-10.9-10.9H165.4Z" transform="translate(-2 -70.85)"/></g></g><path d="M493.71,71.39h-228a5.43,5.43,0,0,0-5.43,5.43V391.68a5.43,5.43,0,0,0,5.43,5.43H504.57a5.43,5.43,0,0,0,5.43-5.43v-304A16.28,16.28,0,0,0,493.71,71.39Zm5.43,314.86h-228v-304H493.71a5.43,5.43,0,0,1,5.43,5.42Z" transform="translate(-2 -70.85)"/><path d="M385.14,228.82a32.57,32.57,0,1,0-32.57-32.57A32.57,32.57,0,0,0,385.14,228.82Zm0-54.29a21.72,21.72,0,1,1-21.72,21.72A21.72,21.72,0,0,1,385.14,174.53Z" transform="translate(-2 -70.85)"/><path d="M488.29,326.54H401.43A5.43,5.43,0,0,0,396,332v32.57a5.43,5.43,0,0,0,5.43,5.43h86.86a5.43,5.43,0,0,0,5.42-5.43V332A5.43,5.43,0,0,0,488.29,326.54Zm-5.43,32.57h-76V337.4h76Z" transform="translate(-2 -70.85)"/><path d="M385.25,201.68a5.43,5.43,0,0,0,0-10.86h-.06a5.43,5.43,0,0,0,.06,10.86Z" transform="translate(-2 -70.85)"/><path d="M385.14,310.25H367.92c4.51-6.37,9.77-14.19,14.25-21.82,1,0,2,.11,3,.11a92.43,92.43,0,1,0-45.69-12.16c-4.6,3.21-9.36,6.67-14,10.18v-8.88a5.43,5.43,0,0,0-5.43-5.43H287.42a5.43,5.43,0,0,0-5.43,5.43v86.86a5.43,5.43,0,0,0,5.43,5.43h97.72a5.43,5.43,0,0,0,5.43-5.43V315.68A5.43,5.43,0,0,0,385.14,310.25Zm-81.43-114A81.43,81.43,0,1,1,388,277.63c.21-.47.38-.88.58-1.32s.44-1,.64-1.48c.41-1,.76-1.9,1.09-2.8.12-.35.27-.73.38-1.08a28.86,28.86,0,0,0,.9-3.4c0-.17,0-.33.08-.5a18.62,18.62,0,0,0,.27-2.48v-.89a12.65,12.65,0,0,0-.16-1.73c-.05-.28-.11-.54-.19-.84a8.15,8.15,0,0,0-.54-1.5c-.1-.21-.18-.44-.3-.64a8.58,8.58,0,0,0-1.36-1.81,10.68,10.68,0,0,0-1.2-1l-.38-.24a7.93,7.93,0,0,0-1-.55c-.15-.07-.29-.14-.45-.2a9.57,9.57,0,0,0-1.58-.47h-.08a11.49,11.49,0,0,0-1.95-.17h-.18l-.4,0a14.91,14.91,0,0,0-1.63.13l-.7.1c-.66.1-1.38.26-2.12.45l-.48.11c-.94.26-2,.59-3,1l-.43.17c-.94.35-2,.77-3,1.23l-1,.43q-1.45.68-3.06,1.47l-1,.51c-1.4.73-2.86,1.51-4.42,2.39h0c-1.59.9-3.29,1.91-5.07,3l-1.42.87c-1.31.81-2.67,1.66-4.09,2.58l-1,.61A81.47,81.47,0,0,1,303.71,196.25Zm19.64,105.62c9.55-7.6,20.38-15.45,29.69-21.6,17.25-11.36,24.91-14.07,27.89-14.69a55.47,55.47,0,0,1-6.55,14.66,339.34,339.34,0,0,1-21.44,32.18,264.09,264.09,0,0,1-17.28,21.49,16.29,16.29,0,0,1-27-16.56v0a16.54,16.54,0,0,1,4-6.48c.62-.62,1.69-1.57,3-2.66C317.57,306.51,320.21,304.35,323.35,301.87Zm56.36,57.24H292.85v-76h21.72V295l-.3.24-1.09.86c-.67.55-1.33,1.09-2,1.63-.36.3-.7.54-1.05.87-.72.6-1.39,1.17-2.05,1.74l-.87.76c-.9.78-1.71,1.53-2.33,2.17A27.4,27.4,0,0,0,298.31,314a26.84,26.84,0,0,0,16.94,34c.7.23,1.41.43,2.12.61.51.13,1,.35,1.52.45.78.15,1.59.14,2.39.22a26.08,26.08,0,0,0,2.79.27c.66,0,1.33-.14,2-.19a26.48,26.48,0,0,0,17.28-7.73c.4-.39.87-.89,1.38-1.46l.59-.65c.36-.41.72-.81,1.12-1.28l.79-.92,1.19-1.42.94-1.14,1.26-1.54,1.09-1.35,1.3-1.63,1.2-1.52c.43-.54.86-1.09,1.3-1.67l1.31-1.69,1.32-1.73,1.35-1.77c.18-.25.36-.48.55-.72h19.68Z" transform="translate(-2 -70.85)"/><path d="M309.14,104a16.29,16.29,0,1,0-16.29,16.29A16.29,16.29,0,0,0,309.14,104Zm-21.72,0a5.43,5.43,0,1,1,5.43,5.43A5.43,5.43,0,0,1,287.42,104Z" transform="translate(-2 -70.85)"/><path d="M477.43,87.67A16.29,16.29,0,1,0,493.71,104,16.29,16.29,0,0,0,477.43,87.67Zm0,21.72a5.43,5.43,0,1,1,5.43-5.43A5.43,5.43,0,0,1,477.43,109.39Z" transform="translate(-2 -70.85)"/><path d="M325.42,326.54h.11a5.39,5.39,0,0,0,4.07-1.93l10.52-10.52a5.43,5.43,0,0,0-7.68-7.68l-10.86,10.86a5.44,5.44,0,0,0,0,7.68A5.39,5.39,0,0,0,325.42,326.54Z" transform="translate(-2 -70.85)"/></svg>